<?xml version="1.0" encoding="UTF-8"?>
<svg width="177px" height="127px" viewBox="0 0 177 127" version="1.1" xmlns="http://www.w3.org/2000/svg" xmlns:xlink="http://www.w3.org/1999/xlink">
    <!-- Generator: Sketch 48.2 (47327) - http://www.bohemiancoding.com/sketch -->
    <title>Group</title>
    <desc>Created with Sketch.</desc>
    <defs></defs>
    <g id="Page-1" stroke="none" stroke-width="1" fill="none" fill-rule="evenodd">
        <g id="Group" transform="translate(3.000000, 3.000000)">
            <path d="M27.1274788,100 C12.1453859,100 0,87.8878966 0,72.9468599 C0,58.0058232 12.1453859,45.8937198 27.1274788,45.8937198 C27.1274788,30.9526831 39.2728647,18.8405797 54.2549575,18.8405797 C58.5235582,18.8405797 62.5618872,19.8237883 66.1546529,21.5755038 C71.8679363,8.85881068 84.6706616,0 99.5481586,0 C119.74723,0 136.121813,16.3297108 136.121813,36.47343 C136.121813,37.2992528 136.094292,38.1186654 136.040115,38.9308054 C137.413107,38.7438988 138.814935,38.647343 140.239377,38.647343 C157.228,38.647343 171,52.3816031 171,69.3236715 C171,86.2657399 157.228,100 140.239377,100 C140.158567,100 140.07783,99.9996892 139.997167,99.9990689 L131.610868,100 L94.5241496,100 L27.1274788,100 Z" id="Combined-Shape" stroke="#979797" stroke-width="6" fill="#FFFFFF"></path>
            <text id="Mondwolke" font-family="LithosPro-Regular, Lithos Pro" font-size="20" font-weight="normal" fill="#9B9B9B">
                <tspan x="11" y="123">Mondwolke</tspan>
            </text>
            <path d="M104.899747,14 C98.6134399,20.5488974 94.7538232,29.4165683 94.7538232,39.1796712 C94.7538232,59.3347759 111.202788,75.6737166 131.493613,75.6737166 C137.034459,75.6737166 142.288825,74.4553539 147,72.2736223 C140.151583,84.0642769 127.328926,92 112.6403,92 C90.7475668,92 73,74.371143 73,52.6248458 C73,33.5097301 86.7126707,17.5759576 104.899747,14 Z" id="Combined-Shape" stroke="#979797" stroke-width="5" fill="#FFECA5"></path>
        </g>
    </g>
</svg>